<mxfile host="Electron" modified="2023-05-12T06:20:56.536Z" agent="Mozilla/5.0 (Windows NT 10.0; Win64; x64) AppleWebKit/537.36 (KHTML, like Gecko) draw.io/21.1.2 Chrome/106.0.5249.199 Electron/21.4.3 Safari/537.36" etag="lAxoqQQtz_r_OWFLzYN8" version="21.1.2" type="device">
  <diagram name="连连支付" id="YtFQPeGC1CvswgXycj43">
    <mxGraphModel dx="3055" dy="983" grid="1" gridSize="10" guides="1" tooltips="1" connect="1" arrows="1" fold="1" page="1" pageScale="1" pageWidth="1169" pageHeight="1654" math="0" shadow="0">
      <root>
        <mxCell id="0" />
        <mxCell id="1" parent="0" />
        <mxCell id="04IOhejOop0-YpIcqyQs-1" value="支付中台" style="shape=umlLifeline;perimeter=lifelinePerimeter;whiteSpace=wrap;html=1;container=1;dropTarget=0;collapsible=0;recursiveResize=0;outlineConnect=0;portConstraint=eastwest;newEdgeStyle={&quot;edgeStyle&quot;:&quot;elbowEdgeStyle&quot;,&quot;elbow&quot;:&quot;vertical&quot;,&quot;curved&quot;:0,&quot;rounded&quot;:0};sketch=1;hachureGap=4;jiggle=2;curveFitting=1;fontFamily=Comic Sans MS;fontSize=20;" vertex="1" parent="1">
          <mxGeometry x="790" y="140" width="120" height="650" as="geometry" />
        </mxCell>
        <mxCell id="04IOhejOop0-YpIcqyQs-16" value="" style="html=1;points=[];perimeter=orthogonalPerimeter;outlineConnect=0;targetShapes=umlLifeline;portConstraint=eastwest;newEdgeStyle={&quot;edgeStyle&quot;:&quot;elbowEdgeStyle&quot;,&quot;elbow&quot;:&quot;vertical&quot;,&quot;curved&quot;:0,&quot;rounded&quot;:0};sketch=1;hachureGap=4;jiggle=2;curveFitting=1;fontFamily=Architects Daughter;fontSource=https%3A%2F%2Ffonts.googleapis.com%2Fcss%3Ffamily%3DArchitects%2BDaughter;fontSize=20;fillColor=#008a00;fontColor=#ffffff;strokeColor=#005700;" vertex="1" parent="04IOhejOop0-YpIcqyQs-1">
          <mxGeometry x="55" y="470" width="10" height="40" as="geometry" />
        </mxCell>
        <mxCell id="04IOhejOop0-YpIcqyQs-17" value="&lt;font color=&quot;#006600&quot;&gt;更新支&lt;br&gt;付状态&lt;/font&gt;" style="html=1;align=left;spacingLeft=2;endArrow=block;rounded=0;edgeStyle=orthogonalEdgeStyle;curved=0;rounded=0;sketch=1;hachureGap=4;jiggle=2;curveFitting=1;fontFamily=Architects Daughter;fontSource=https%3A%2F%2Ffonts.googleapis.com%2Fcss%3Ffamily%3DArchitects%2BDaughter;fontSize=16;startSize=14;endSize=14;sourcePerimeterSpacing=8;targetPerimeterSpacing=8;fillColor=#008a00;strokeColor=#005700;" edge="1" target="04IOhejOop0-YpIcqyQs-16" parent="04IOhejOop0-YpIcqyQs-1" source="04IOhejOop0-YpIcqyQs-16">
          <mxGeometry relative="1" as="geometry">
            <mxPoint x="60" y="400" as="sourcePoint" />
            <Array as="points">
              <mxPoint x="110" y="470" />
              <mxPoint x="110" y="510" />
            </Array>
            <mxPoint as="offset" />
          </mxGeometry>
        </mxCell>
        <mxCell id="04IOhejOop0-YpIcqyQs-2" value="连连" style="shape=umlLifeline;perimeter=lifelinePerimeter;whiteSpace=wrap;html=1;container=1;dropTarget=0;collapsible=0;recursiveResize=0;outlineConnect=0;portConstraint=eastwest;newEdgeStyle={&quot;edgeStyle&quot;:&quot;elbowEdgeStyle&quot;,&quot;elbow&quot;:&quot;vertical&quot;,&quot;curved&quot;:0,&quot;rounded&quot;:0};sketch=1;hachureGap=4;jiggle=2;curveFitting=1;fontFamily=Comic Sans MS;fontSize=20;" vertex="1" parent="1">
          <mxGeometry x="1030" y="140" width="120" height="650" as="geometry" />
        </mxCell>
        <mxCell id="04IOhejOop0-YpIcqyQs-3" value="A.2. 支付宝支付创单&lt;br&gt;pay_type: L" style="html=1;verticalAlign=bottom;startArrow=oval;startFill=1;endArrow=open;startSize=8;elbow=vertical;rounded=0;sketch=1;hachureGap=4;jiggle=2;curveFitting=1;fontFamily=Comic Sans MS;fontSize=16;sourcePerimeterSpacing=8;targetPerimeterSpacing=8;endFill=0;endSize=14;" edge="1" parent="1" source="04IOhejOop0-YpIcqyQs-1" target="04IOhejOop0-YpIcqyQs-2">
          <mxGeometry x="0.0917" width="60" relative="1" as="geometry">
            <mxPoint x="849.5" y="299" as="sourcePoint" />
            <mxPoint x="1100" y="300" as="targetPoint" />
            <Array as="points">
              <mxPoint x="980" y="299" />
            </Array>
            <mxPoint as="offset" />
          </mxGeometry>
        </mxCell>
        <mxCell id="04IOhejOop0-YpIcqyQs-4" value="&lt;font&gt;A.3. gateway_url&lt;br&gt;&lt;/font&gt;" style="html=1;verticalAlign=bottom;endArrow=open;dashed=1;endSize=14;edgeStyle=elbowEdgeStyle;elbow=vertical;curved=0;rounded=0;sketch=1;hachureGap=4;jiggle=2;curveFitting=1;fontFamily=Comic Sans MS;fontSize=16;sourcePerimeterSpacing=8;targetPerimeterSpacing=8;" edge="1" parent="1" source="04IOhejOop0-YpIcqyQs-2" target="04IOhejOop0-YpIcqyQs-1">
          <mxGeometry x="-0.0875" relative="1" as="geometry">
            <mxPoint x="1089.5" y="440" as="sourcePoint" />
            <mxPoint x="849.5" y="440" as="targetPoint" />
            <Array as="points">
              <mxPoint x="920" y="360" />
              <mxPoint x="990" y="440" />
            </Array>
            <mxPoint x="1" as="offset" />
          </mxGeometry>
        </mxCell>
        <mxCell id="04IOhejOop0-YpIcqyQs-6" value="电商APP" style="shape=umlLifeline;perimeter=lifelinePerimeter;whiteSpace=wrap;html=1;container=1;dropTarget=0;collapsible=0;recursiveResize=0;outlineConnect=0;portConstraint=eastwest;newEdgeStyle={&quot;edgeStyle&quot;:&quot;elbowEdgeStyle&quot;,&quot;elbow&quot;:&quot;vertical&quot;,&quot;curved&quot;:0,&quot;rounded&quot;:0};sketch=1;hachureGap=4;jiggle=2;curveFitting=1;fontFamily=Comic Sans MS;fontSize=20;" vertex="1" parent="1">
          <mxGeometry x="550" y="140" width="120" height="660" as="geometry" />
        </mxCell>
        <mxCell id="04IOhejOop0-YpIcqyQs-35" value="" style="html=1;points=[];perimeter=orthogonalPerimeter;outlineConnect=0;targetShapes=umlLifeline;portConstraint=eastwest;newEdgeStyle={&quot;edgeStyle&quot;:&quot;elbowEdgeStyle&quot;,&quot;elbow&quot;:&quot;vertical&quot;,&quot;curved&quot;:0,&quot;rounded&quot;:0};sketch=1;hachureGap=4;jiggle=2;curveFitting=1;fontFamily=Architects Daughter;fontSource=https%3A%2F%2Ffonts.googleapis.com%2Fcss%3Ffamily%3DArchitects%2BDaughter;fontSize=20;" vertex="1" parent="04IOhejOop0-YpIcqyQs-6">
          <mxGeometry x="52" y="340" width="10" height="40" as="geometry" />
        </mxCell>
        <mxCell id="04IOhejOop0-YpIcqyQs-36" value="A.5 支付" style="html=1;align=left;spacingLeft=2;endArrow=block;rounded=0;edgeStyle=orthogonalEdgeStyle;curved=0;rounded=0;sketch=1;hachureGap=4;jiggle=2;curveFitting=1;fontFamily=Architects Daughter;fontSource=https%3A%2F%2Ffonts.googleapis.com%2Fcss%3Ffamily%3DArchitects%2BDaughter;fontSize=16;startSize=14;endSize=14;sourcePerimeterSpacing=8;targetPerimeterSpacing=8;" edge="1" target="04IOhejOop0-YpIcqyQs-35" parent="04IOhejOop0-YpIcqyQs-6" source="04IOhejOop0-YpIcqyQs-35">
          <mxGeometry x="0.1864" relative="1" as="geometry">
            <mxPoint x="55" y="320" as="sourcePoint" />
            <Array as="points">
              <mxPoint x="120" y="340" />
              <mxPoint x="120" y="380" />
            </Array>
            <mxPoint as="offset" />
          </mxGeometry>
        </mxCell>
        <mxCell id="04IOhejOop0-YpIcqyQs-9" value="A.1. 发起支付" style="html=1;verticalAlign=bottom;endArrow=open;edgeStyle=elbowEdgeStyle;elbow=vertical;curved=0;rounded=0;sketch=1;hachureGap=4;jiggle=2;curveFitting=1;fontFamily=Architects Daughter;fontSource=https%3A%2F%2Ffonts.googleapis.com%2Fcss%3Ffamily%3DArchitects%2BDaughter;fontSize=16;startSize=14;endSize=14;sourcePerimeterSpacing=8;targetPerimeterSpacing=8;endFill=0;" edge="1" parent="1" source="04IOhejOop0-YpIcqyQs-6" target="04IOhejOop0-YpIcqyQs-1">
          <mxGeometry width="80" relative="1" as="geometry">
            <mxPoint x="620" y="240" as="sourcePoint" />
            <mxPoint x="700" y="240" as="targetPoint" />
            <Array as="points">
              <mxPoint x="720" y="230" />
            </Array>
            <mxPoint as="offset" />
          </mxGeometry>
        </mxCell>
        <mxCell id="04IOhejOop0-YpIcqyQs-11" value="&lt;font&gt;A.4. 监听alipay://地址&lt;br&gt;&lt;/font&gt;" style="html=1;verticalAlign=bottom;endArrow=open;dashed=1;endSize=14;edgeStyle=elbowEdgeStyle;elbow=vertical;curved=0;rounded=0;sketch=1;hachureGap=4;jiggle=2;curveFitting=1;fontFamily=Comic Sans MS;fontSize=16;sourcePerimeterSpacing=8;targetPerimeterSpacing=8;" edge="1" parent="1" source="04IOhejOop0-YpIcqyQs-1" target="04IOhejOop0-YpIcqyQs-6">
          <mxGeometry x="-0.0875" relative="1" as="geometry">
            <mxPoint x="1100" y="370" as="sourcePoint" />
            <mxPoint x="860" y="370" as="targetPoint" />
            <Array as="points">
              <mxPoint x="680" y="420" />
              <mxPoint x="660" y="400" />
              <mxPoint x="760" y="370" />
              <mxPoint x="1000" y="450" />
            </Array>
            <mxPoint x="1" as="offset" />
          </mxGeometry>
        </mxCell>
        <mxCell id="04IOhejOop0-YpIcqyQs-12" value="&lt;font color=&quot;#006600&quot;&gt;B.1. 异步通知&lt;/font&gt;" style="html=1;verticalAlign=bottom;endArrow=block;edgeStyle=elbowEdgeStyle;elbow=vertical;curved=0;rounded=0;sketch=1;hachureGap=4;jiggle=2;curveFitting=1;fontFamily=Architects Daughter;fontSource=https%3A%2F%2Ffonts.googleapis.com%2Fcss%3Ffamily%3DArchitects%2BDaughter;fontSize=16;startSize=14;endSize=14;sourcePerimeterSpacing=8;targetPerimeterSpacing=8;fillColor=#008a00;strokeColor=#005700;" edge="1" parent="1" source="04IOhejOop0-YpIcqyQs-2" target="04IOhejOop0-YpIcqyQs-1">
          <mxGeometry width="80" relative="1" as="geometry">
            <mxPoint x="940" y="670" as="sourcePoint" />
            <mxPoint x="1020" y="670" as="targetPoint" />
            <Array as="points">
              <mxPoint x="980" y="590" />
            </Array>
            <mxPoint as="offset" />
          </mxGeometry>
        </mxCell>
        <mxCell id="04IOhejOop0-YpIcqyQs-13" value="&lt;font color=&quot;#006600&quot;&gt;B.2 响应&lt;/font&gt;" style="html=1;verticalAlign=bottom;endArrow=open;dashed=1;endSize=8;edgeStyle=elbowEdgeStyle;elbow=vertical;curved=0;rounded=0;sketch=1;hachureGap=4;jiggle=2;curveFitting=1;fontFamily=Architects Daughter;fontSource=https%3A%2F%2Ffonts.googleapis.com%2Fcss%3Ffamily%3DArchitects%2BDaughter;fontSize=16;sourcePerimeterSpacing=8;targetPerimeterSpacing=8;fillColor=#008a00;strokeColor=#005700;" edge="1" parent="1" source="04IOhejOop0-YpIcqyQs-1" target="04IOhejOop0-YpIcqyQs-2">
          <mxGeometry relative="1" as="geometry">
            <mxPoint x="930" y="650" as="sourcePoint" />
            <mxPoint x="850" y="650" as="targetPoint" />
            <Array as="points">
              <mxPoint x="1010" y="670" />
            </Array>
          </mxGeometry>
        </mxCell>
        <mxCell id="04IOhejOop0-YpIcqyQs-20" value="&lt;font color=&quot;#ff0000&quot;&gt;C.1 定时查询&lt;br&gt;支付结果&lt;/font&gt;" style="html=1;verticalAlign=bottom;startArrow=circle;startFill=1;endArrow=open;startSize=6;endSize=8;edgeStyle=elbowEdgeStyle;elbow=vertical;curved=0;rounded=0;sketch=1;hachureGap=4;jiggle=2;curveFitting=1;fontFamily=Architects Daughter;fontSource=https%3A%2F%2Ffonts.googleapis.com%2Fcss%3Ffamily%3DArchitects%2BDaughter;fontSize=16;sourcePerimeterSpacing=8;targetPerimeterSpacing=8;dashed=1;fillColor=#a20025;strokeColor=#6F0000;" edge="1" parent="1" source="04IOhejOop0-YpIcqyQs-6" target="04IOhejOop0-YpIcqyQs-1">
          <mxGeometry x="0.0042" y="-20" width="80" relative="1" as="geometry">
            <mxPoint x="609.5" y="503" as="sourcePoint" />
            <mxPoint x="849.5" y="503" as="targetPoint" />
            <Array as="points">
              <mxPoint x="730" y="570" />
              <mxPoint x="650" y="583" />
              <mxPoint x="800" y="593" />
              <mxPoint x="800" y="583" />
              <mxPoint x="810" y="593" />
              <mxPoint x="760" y="553" />
            </Array>
            <mxPoint as="offset" />
          </mxGeometry>
        </mxCell>
        <mxCell id="04IOhejOop0-YpIcqyQs-21" value="&lt;font color=&quot;#ff0000&quot;&gt;C.2 定时查询&lt;br&gt;支付结果&lt;/font&gt;" style="html=1;verticalAlign=bottom;startArrow=circle;startFill=1;endArrow=open;startSize=6;endSize=8;edgeStyle=elbowEdgeStyle;elbow=vertical;curved=0;rounded=0;sketch=1;hachureGap=4;jiggle=2;curveFitting=1;fontFamily=Architects Daughter;fontSource=https%3A%2F%2Ffonts.googleapis.com%2Fcss%3Ffamily%3DArchitects%2BDaughter;fontSize=16;sourcePerimeterSpacing=8;targetPerimeterSpacing=8;dashed=1;fillColor=#a20025;strokeColor=#6F0000;" edge="1" parent="1" source="04IOhejOop0-YpIcqyQs-6" target="04IOhejOop0-YpIcqyQs-1">
          <mxGeometry x="0.0042" y="-20" width="80" relative="1" as="geometry">
            <mxPoint x="610" y="660" as="sourcePoint" />
            <mxPoint x="850" y="660" as="targetPoint" />
            <Array as="points">
              <mxPoint x="750" y="690" />
              <mxPoint x="760" y="660" />
            </Array>
            <mxPoint as="offset" />
          </mxGeometry>
        </mxCell>
        <mxCell id="04IOhejOop0-YpIcqyQs-37" value="支付中台" style="shape=umlLifeline;perimeter=lifelinePerimeter;whiteSpace=wrap;html=1;container=1;dropTarget=0;collapsible=0;recursiveResize=0;outlineConnect=0;portConstraint=eastwest;newEdgeStyle={&quot;edgeStyle&quot;:&quot;elbowEdgeStyle&quot;,&quot;elbow&quot;:&quot;vertical&quot;,&quot;curved&quot;:0,&quot;rounded&quot;:0};sketch=1;hachureGap=4;jiggle=2;curveFitting=1;fontFamily=Comic Sans MS;fontSize=20;" vertex="1" parent="1">
          <mxGeometry x="80" y="140" width="120" height="650" as="geometry" />
        </mxCell>
        <mxCell id="04IOhejOop0-YpIcqyQs-38" value="" style="html=1;points=[];perimeter=orthogonalPerimeter;outlineConnect=0;targetShapes=umlLifeline;portConstraint=eastwest;newEdgeStyle={&quot;edgeStyle&quot;:&quot;elbowEdgeStyle&quot;,&quot;elbow&quot;:&quot;vertical&quot;,&quot;curved&quot;:0,&quot;rounded&quot;:0};sketch=1;hachureGap=4;jiggle=2;curveFitting=1;fontFamily=Architects Daughter;fontSource=https%3A%2F%2Ffonts.googleapis.com%2Fcss%3Ffamily%3DArchitects%2BDaughter;fontSize=20;fillColor=#008a00;fontColor=#ffffff;strokeColor=#005700;" vertex="1" parent="04IOhejOop0-YpIcqyQs-37">
          <mxGeometry x="55" y="470" width="10" height="40" as="geometry" />
        </mxCell>
        <mxCell id="04IOhejOop0-YpIcqyQs-39" value="&lt;font color=&quot;#006600&quot;&gt;更新支&lt;br&gt;付状态&lt;/font&gt;" style="html=1;align=left;spacingLeft=2;endArrow=block;rounded=0;edgeStyle=orthogonalEdgeStyle;curved=0;rounded=0;sketch=1;hachureGap=4;jiggle=2;curveFitting=1;fontFamily=Architects Daughter;fontSource=https%3A%2F%2Ffonts.googleapis.com%2Fcss%3Ffamily%3DArchitects%2BDaughter;fontSize=16;startSize=14;endSize=14;sourcePerimeterSpacing=8;targetPerimeterSpacing=8;fillColor=#008a00;strokeColor=#005700;" edge="1" parent="04IOhejOop0-YpIcqyQs-37" source="04IOhejOop0-YpIcqyQs-38" target="04IOhejOop0-YpIcqyQs-38">
          <mxGeometry relative="1" as="geometry">
            <mxPoint x="60" y="400" as="sourcePoint" />
            <Array as="points">
              <mxPoint x="110" y="470" />
              <mxPoint x="110" y="510" />
            </Array>
            <mxPoint as="offset" />
          </mxGeometry>
        </mxCell>
        <mxCell id="04IOhejOop0-YpIcqyQs-40" value="连连" style="shape=umlLifeline;perimeter=lifelinePerimeter;whiteSpace=wrap;html=1;container=1;dropTarget=0;collapsible=0;recursiveResize=0;outlineConnect=0;portConstraint=eastwest;newEdgeStyle={&quot;edgeStyle&quot;:&quot;elbowEdgeStyle&quot;,&quot;elbow&quot;:&quot;vertical&quot;,&quot;curved&quot;:0,&quot;rounded&quot;:0};sketch=1;hachureGap=4;jiggle=2;curveFitting=1;fontFamily=Comic Sans MS;fontSize=20;" vertex="1" parent="1">
          <mxGeometry x="320" y="140" width="120" height="650" as="geometry" />
        </mxCell>
        <mxCell id="04IOhejOop0-YpIcqyQs-41" value="A.2. 支付宝支付创单&lt;br&gt;pay_type: L" style="html=1;verticalAlign=bottom;startArrow=oval;startFill=1;endArrow=open;startSize=8;elbow=vertical;rounded=0;sketch=1;hachureGap=4;jiggle=2;curveFitting=1;fontFamily=Comic Sans MS;fontSize=16;sourcePerimeterSpacing=8;targetPerimeterSpacing=8;endFill=0;endSize=14;" edge="1" parent="1" source="04IOhejOop0-YpIcqyQs-37" target="04IOhejOop0-YpIcqyQs-40">
          <mxGeometry x="0.0917" width="60" relative="1" as="geometry">
            <mxPoint x="139.5" y="299" as="sourcePoint" />
            <mxPoint x="390" y="300" as="targetPoint" />
            <Array as="points">
              <mxPoint x="270" y="299" />
            </Array>
            <mxPoint as="offset" />
          </mxGeometry>
        </mxCell>
        <mxCell id="04IOhejOop0-YpIcqyQs-42" value="&lt;font&gt;A.3. gateway_url&lt;br&gt;&lt;/font&gt;" style="html=1;verticalAlign=bottom;endArrow=open;dashed=1;endSize=14;edgeStyle=elbowEdgeStyle;elbow=vertical;curved=0;rounded=0;sketch=1;hachureGap=4;jiggle=2;curveFitting=1;fontFamily=Comic Sans MS;fontSize=16;sourcePerimeterSpacing=8;targetPerimeterSpacing=8;" edge="1" parent="1" source="04IOhejOop0-YpIcqyQs-40" target="04IOhejOop0-YpIcqyQs-37">
          <mxGeometry x="-0.0875" relative="1" as="geometry">
            <mxPoint x="379.5" y="440" as="sourcePoint" />
            <mxPoint x="139.5" y="440" as="targetPoint" />
            <Array as="points">
              <mxPoint x="210" y="360" />
              <mxPoint x="280" y="440" />
            </Array>
            <mxPoint x="1" as="offset" />
          </mxGeometry>
        </mxCell>
        <mxCell id="04IOhejOop0-YpIcqyQs-43" value="电商Web" style="shape=umlLifeline;perimeter=lifelinePerimeter;whiteSpace=wrap;html=1;container=1;dropTarget=0;collapsible=0;recursiveResize=0;outlineConnect=0;portConstraint=eastwest;newEdgeStyle={&quot;edgeStyle&quot;:&quot;elbowEdgeStyle&quot;,&quot;elbow&quot;:&quot;vertical&quot;,&quot;curved&quot;:0,&quot;rounded&quot;:0};sketch=1;hachureGap=4;jiggle=2;curveFitting=1;fontFamily=Comic Sans MS;fontSize=20;" vertex="1" parent="1">
          <mxGeometry x="-160" y="140" width="120" height="660" as="geometry" />
        </mxCell>
        <mxCell id="04IOhejOop0-YpIcqyQs-44" value="" style="html=1;points=[];perimeter=orthogonalPerimeter;outlineConnect=0;targetShapes=umlLifeline;portConstraint=eastwest;newEdgeStyle={&quot;edgeStyle&quot;:&quot;elbowEdgeStyle&quot;,&quot;elbow&quot;:&quot;vertical&quot;,&quot;curved&quot;:0,&quot;rounded&quot;:0};sketch=1;hachureGap=4;jiggle=2;curveFitting=1;fontFamily=Architects Daughter;fontSource=https%3A%2F%2Ffonts.googleapis.com%2Fcss%3Ffamily%3DArchitects%2BDaughter;fontSize=20;" vertex="1" parent="04IOhejOop0-YpIcqyQs-43">
          <mxGeometry x="52" y="340" width="10" height="40" as="geometry" />
        </mxCell>
        <mxCell id="04IOhejOop0-YpIcqyQs-45" value="A.5 支付" style="html=1;align=left;spacingLeft=2;endArrow=block;rounded=0;edgeStyle=orthogonalEdgeStyle;curved=0;rounded=0;sketch=1;hachureGap=4;jiggle=2;curveFitting=1;fontFamily=Architects Daughter;fontSource=https%3A%2F%2Ffonts.googleapis.com%2Fcss%3Ffamily%3DArchitects%2BDaughter;fontSize=16;startSize=14;endSize=14;sourcePerimeterSpacing=8;targetPerimeterSpacing=8;" edge="1" parent="04IOhejOop0-YpIcqyQs-43" source="04IOhejOop0-YpIcqyQs-44" target="04IOhejOop0-YpIcqyQs-44">
          <mxGeometry x="0.1864" relative="1" as="geometry">
            <mxPoint x="55" y="320" as="sourcePoint" />
            <Array as="points">
              <mxPoint x="120" y="340" />
              <mxPoint x="120" y="380" />
            </Array>
            <mxPoint as="offset" />
          </mxGeometry>
        </mxCell>
        <mxCell id="04IOhejOop0-YpIcqyQs-46" value="A.1. 发起支付" style="html=1;verticalAlign=bottom;endArrow=open;edgeStyle=elbowEdgeStyle;elbow=vertical;curved=0;rounded=0;sketch=1;hachureGap=4;jiggle=2;curveFitting=1;fontFamily=Architects Daughter;fontSource=https%3A%2F%2Ffonts.googleapis.com%2Fcss%3Ffamily%3DArchitects%2BDaughter;fontSize=16;startSize=14;endSize=14;sourcePerimeterSpacing=8;targetPerimeterSpacing=8;endFill=0;" edge="1" parent="1" source="04IOhejOop0-YpIcqyQs-43" target="04IOhejOop0-YpIcqyQs-37">
          <mxGeometry width="80" relative="1" as="geometry">
            <mxPoint x="-90" y="240" as="sourcePoint" />
            <mxPoint x="-10" y="240" as="targetPoint" />
            <Array as="points">
              <mxPoint x="10" y="230" />
            </Array>
            <mxPoint as="offset" />
          </mxGeometry>
        </mxCell>
        <mxCell id="04IOhejOop0-YpIcqyQs-47" value="&lt;font&gt;A.4. 返回二维码链接&lt;br&gt;&lt;/font&gt;" style="html=1;verticalAlign=bottom;endArrow=open;dashed=1;endSize=14;edgeStyle=elbowEdgeStyle;elbow=vertical;curved=0;rounded=0;sketch=1;hachureGap=4;jiggle=2;curveFitting=1;fontFamily=Comic Sans MS;fontSize=16;sourcePerimeterSpacing=8;targetPerimeterSpacing=8;" edge="1" parent="1" source="04IOhejOop0-YpIcqyQs-37" target="04IOhejOop0-YpIcqyQs-43">
          <mxGeometry x="-0.0875" relative="1" as="geometry">
            <mxPoint x="390" y="370" as="sourcePoint" />
            <mxPoint x="150" y="370" as="targetPoint" />
            <Array as="points">
              <mxPoint x="-30" y="420" />
              <mxPoint x="-50" y="400" />
              <mxPoint x="50" y="370" />
              <mxPoint x="290" y="450" />
            </Array>
            <mxPoint x="1" as="offset" />
          </mxGeometry>
        </mxCell>
        <mxCell id="04IOhejOop0-YpIcqyQs-48" value="&lt;font color=&quot;#006600&quot;&gt;B.1. 异步通知&lt;/font&gt;" style="html=1;verticalAlign=bottom;endArrow=block;edgeStyle=elbowEdgeStyle;elbow=vertical;curved=0;rounded=0;sketch=1;hachureGap=4;jiggle=2;curveFitting=1;fontFamily=Architects Daughter;fontSource=https%3A%2F%2Ffonts.googleapis.com%2Fcss%3Ffamily%3DArchitects%2BDaughter;fontSize=16;startSize=14;endSize=14;sourcePerimeterSpacing=8;targetPerimeterSpacing=8;fillColor=#008a00;strokeColor=#005700;" edge="1" parent="1" source="04IOhejOop0-YpIcqyQs-40" target="04IOhejOop0-YpIcqyQs-37">
          <mxGeometry width="80" relative="1" as="geometry">
            <mxPoint x="230" y="670" as="sourcePoint" />
            <mxPoint x="310" y="670" as="targetPoint" />
            <Array as="points">
              <mxPoint x="270" y="590" />
            </Array>
            <mxPoint as="offset" />
          </mxGeometry>
        </mxCell>
        <mxCell id="04IOhejOop0-YpIcqyQs-49" value="&lt;font color=&quot;#006600&quot;&gt;B.2 响应&lt;/font&gt;" style="html=1;verticalAlign=bottom;endArrow=open;dashed=1;endSize=8;edgeStyle=elbowEdgeStyle;elbow=vertical;curved=0;rounded=0;sketch=1;hachureGap=4;jiggle=2;curveFitting=1;fontFamily=Architects Daughter;fontSource=https%3A%2F%2Ffonts.googleapis.com%2Fcss%3Ffamily%3DArchitects%2BDaughter;fontSize=16;sourcePerimeterSpacing=8;targetPerimeterSpacing=8;fillColor=#008a00;strokeColor=#005700;" edge="1" parent="1" source="04IOhejOop0-YpIcqyQs-37" target="04IOhejOop0-YpIcqyQs-40">
          <mxGeometry relative="1" as="geometry">
            <mxPoint x="220" y="650" as="sourcePoint" />
            <mxPoint x="140" y="650" as="targetPoint" />
            <Array as="points">
              <mxPoint x="300" y="670" />
            </Array>
          </mxGeometry>
        </mxCell>
        <mxCell id="04IOhejOop0-YpIcqyQs-50" value="&lt;font color=&quot;#ff0000&quot;&gt;C.1 定时查询&lt;br&gt;支付结果&lt;/font&gt;" style="html=1;verticalAlign=bottom;startArrow=circle;startFill=1;endArrow=open;startSize=6;endSize=8;edgeStyle=elbowEdgeStyle;elbow=vertical;curved=0;rounded=0;sketch=1;hachureGap=4;jiggle=2;curveFitting=1;fontFamily=Architects Daughter;fontSource=https%3A%2F%2Ffonts.googleapis.com%2Fcss%3Ffamily%3DArchitects%2BDaughter;fontSize=16;sourcePerimeterSpacing=8;targetPerimeterSpacing=8;dashed=1;fillColor=#a20025;strokeColor=#6F0000;" edge="1" parent="1" source="04IOhejOop0-YpIcqyQs-43" target="04IOhejOop0-YpIcqyQs-37">
          <mxGeometry x="0.0042" y="-20" width="80" relative="1" as="geometry">
            <mxPoint x="-100.5" y="503" as="sourcePoint" />
            <mxPoint x="139.5" y="503" as="targetPoint" />
            <Array as="points">
              <mxPoint x="20" y="570" />
              <mxPoint x="-60" y="583" />
              <mxPoint x="90" y="593" />
              <mxPoint x="90" y="583" />
              <mxPoint x="100" y="593" />
              <mxPoint x="50" y="553" />
            </Array>
            <mxPoint as="offset" />
          </mxGeometry>
        </mxCell>
        <mxCell id="04IOhejOop0-YpIcqyQs-51" value="&lt;font color=&quot;#ff0000&quot;&gt;C.2 定时查询&lt;br&gt;支付结果&lt;/font&gt;" style="html=1;verticalAlign=bottom;startArrow=circle;startFill=1;endArrow=open;startSize=6;endSize=8;edgeStyle=elbowEdgeStyle;elbow=vertical;curved=0;rounded=0;sketch=1;hachureGap=4;jiggle=2;curveFitting=1;fontFamily=Architects Daughter;fontSource=https%3A%2F%2Ffonts.googleapis.com%2Fcss%3Ffamily%3DArchitects%2BDaughter;fontSize=16;sourcePerimeterSpacing=8;targetPerimeterSpacing=8;dashed=1;fillColor=#a20025;strokeColor=#6F0000;" edge="1" parent="1" source="04IOhejOop0-YpIcqyQs-43" target="04IOhejOop0-YpIcqyQs-37">
          <mxGeometry x="0.0042" y="-20" width="80" relative="1" as="geometry">
            <mxPoint x="-100" y="660" as="sourcePoint" />
            <mxPoint x="140" y="660" as="targetPoint" />
            <Array as="points">
              <mxPoint x="40" y="690" />
              <mxPoint x="50" y="660" />
            </Array>
            <mxPoint as="offset" />
          </mxGeometry>
        </mxCell>
        <mxCell id="04IOhejOop0-YpIcqyQs-52" value="CommonParam" style="swimlane;fontStyle=0;childLayout=stackLayout;horizontal=1;startSize=30;horizontalStack=0;resizeParent=1;resizeParentMax=0;resizeLast=0;collapsible=1;marginBottom=0;whiteSpace=wrap;html=1;sketch=1;hachureGap=4;jiggle=2;curveFitting=1;fontFamily=Courier New;fontSize=18;labelBackgroundColor=none;fontColor=#000000;" vertex="1" parent="1">
          <mxGeometry x="370" y="860" width="150" height="150" as="geometry" />
        </mxCell>
        <mxCell id="04IOhejOop0-YpIcqyQs-53" value="&lt;div style=&quot;font-size: 18px;&quot;&gt;user_id&lt;/div&gt;" style="text;strokeColor=none;fillColor=none;align=left;verticalAlign=middle;spacingLeft=4;spacingRight=4;overflow=hidden;points=[[0,0.5],[1,0.5]];portConstraint=eastwest;rotatable=0;whiteSpace=wrap;html=1;fontSize=18;fontFamily=Courier New;labelBackgroundColor=none;fontColor=#000000;" vertex="1" parent="04IOhejOop0-YpIcqyQs-52">
          <mxGeometry y="30" width="150" height="30" as="geometry" />
        </mxCell>
        <mxCell id="04IOhejOop0-YpIcqyQs-54" value="&lt;div style=&quot;font-size: 18px;&quot;&gt;oid_partner&lt;/div&gt;" style="text;strokeColor=none;fillColor=none;align=left;verticalAlign=middle;spacingLeft=4;spacingRight=4;overflow=hidden;points=[[0,0.5],[1,0.5]];portConstraint=eastwest;rotatable=0;whiteSpace=wrap;html=1;fontSize=18;fontFamily=Courier New;labelBackgroundColor=none;fontColor=#000000;" vertex="1" parent="04IOhejOop0-YpIcqyQs-52">
          <mxGeometry y="60" width="150" height="30" as="geometry" />
        </mxCell>
        <mxCell id="04IOhejOop0-YpIcqyQs-56" value="&lt;div style=&quot;font-size: 18px;&quot;&gt;sign_type&lt;/div&gt;" style="text;strokeColor=none;fillColor=none;align=left;verticalAlign=middle;spacingLeft=4;spacingRight=4;overflow=hidden;points=[[0,0.5],[1,0.5]];portConstraint=eastwest;rotatable=0;whiteSpace=wrap;html=1;fontSize=18;fontFamily=Courier New;labelBackgroundColor=none;fontColor=#000000;" vertex="1" parent="04IOhejOop0-YpIcqyQs-52">
          <mxGeometry y="90" width="150" height="30" as="geometry" />
        </mxCell>
        <mxCell id="04IOhejOop0-YpIcqyQs-55" value="&lt;div style=&quot;font-size: 18px;&quot;&gt;&lt;div style=&quot;font-size: 18px;&quot;&gt;sign&lt;/div&gt;&lt;/div&gt;" style="text;strokeColor=none;fillColor=none;align=left;verticalAlign=middle;spacingLeft=4;spacingRight=4;overflow=hidden;points=[[0,0.5],[1,0.5]];portConstraint=eastwest;rotatable=0;whiteSpace=wrap;html=1;fontSize=18;fontFamily=Courier New;labelBackgroundColor=none;fontColor=#000000;" vertex="1" parent="04IOhejOop0-YpIcqyQs-52">
          <mxGeometry y="120" width="150" height="30" as="geometry" />
        </mxCell>
        <mxCell id="04IOhejOop0-YpIcqyQs-57" value="TradeOrderParam" style="swimlane;fontStyle=0;childLayout=stackLayout;horizontal=1;startSize=30;horizontalStack=0;resizeParent=1;resizeParentMax=0;resizeLast=0;collapsible=1;marginBottom=0;whiteSpace=wrap;html=1;sketch=1;hachureGap=4;jiggle=2;curveFitting=1;fontFamily=Courier New;fontSize=18;labelBackgroundColor=none;fontColor=#000000;" vertex="1" parent="1">
          <mxGeometry x="80" y="1080" width="210" height="240" as="geometry" />
        </mxCell>
        <mxCell id="04IOhejOop0-YpIcqyQs-58" value="&lt;div style=&quot;font-size: 18px;&quot;&gt;&lt;div&gt;busi_partner&lt;/div&gt;&lt;div&gt;dt_order&lt;/div&gt;&lt;div&gt;ext_param&lt;br&gt;&lt;/div&gt;&lt;div&gt;money_order&lt;br&gt;&lt;/div&gt;&lt;div&gt;name_goods&lt;/div&gt;&lt;div&gt;notify_url&lt;/div&gt;&lt;div&gt;no_order&lt;br&gt;&lt;/div&gt;&lt;div&gt;&lt;span style=&quot;background-color: initial;&quot;&gt;pay_type&lt;/span&gt;&lt;br&gt;&lt;/div&gt;&lt;div&gt;risk_item&lt;span style=&quot;background-color: initial;&quot;&gt;&lt;br&gt;&lt;/span&gt;&lt;/div&gt;&lt;/div&gt;" style="text;strokeColor=none;fillColor=none;align=left;verticalAlign=middle;spacingLeft=4;spacingRight=4;overflow=hidden;points=[[0,0.5],[1,0.5]];portConstraint=eastwest;rotatable=0;whiteSpace=wrap;html=1;fontSize=18;fontFamily=Courier New;labelBackgroundColor=none;fontColor=#000000;" vertex="1" parent="04IOhejOop0-YpIcqyQs-57">
          <mxGeometry y="30" width="210" height="210" as="geometry" />
        </mxCell>
        <mxCell id="04IOhejOop0-YpIcqyQs-64" value="Extends" style="endArrow=block;endSize=16;endFill=0;html=1;rounded=0;sketch=1;hachureGap=4;jiggle=2;curveFitting=1;fontFamily=Architects Daughter;fontSource=https%3A%2F%2Ffonts.googleapis.com%2Fcss%3Ffamily%3DArchitects%2BDaughter;fontSize=16;sourcePerimeterSpacing=8;targetPerimeterSpacing=8;curved=1;" edge="1" parent="1" source="04IOhejOop0-YpIcqyQs-57" target="04IOhejOop0-YpIcqyQs-52">
          <mxGeometry width="160" relative="1" as="geometry">
            <mxPoint x="160" y="960" as="sourcePoint" />
            <mxPoint x="320" y="960" as="targetPoint" />
          </mxGeometry>
        </mxCell>
        <mxCell id="04IOhejOop0-YpIcqyQs-65" value="网银支付创单" style="swimlane;fontStyle=0;childLayout=stackLayout;horizontal=1;startSize=30;horizontalStack=0;resizeParent=1;resizeParentMax=0;resizeLast=0;collapsible=1;marginBottom=0;whiteSpace=wrap;html=1;sketch=1;hachureGap=4;jiggle=2;curveFitting=1;fontFamily=Courier New;fontSize=18;labelBackgroundColor=none;fontColor=#000000;" vertex="1" parent="1">
          <mxGeometry x="530" y="1080" width="210" height="240" as="geometry" />
        </mxCell>
        <mxCell id="04IOhejOop0-YpIcqyQs-66" value="&lt;div style=&quot;font-size: 18px;&quot;&gt;&lt;div&gt;busi_partner&lt;/div&gt;&lt;div&gt;dt_order&lt;/div&gt;&lt;div&gt;ext_param&lt;br&gt;&lt;/div&gt;&lt;div&gt;money_order&lt;/div&gt;&lt;div&gt;name_goods&lt;br&gt;&lt;/div&gt;&lt;div&gt;notify_url&lt;/div&gt;&lt;div&gt;no_order&lt;br&gt;&lt;/div&gt;&lt;div&gt;pay_type&lt;/div&gt;&lt;div&gt;risk_item&lt;br&gt;&lt;/div&gt;&lt;/div&gt;" style="text;strokeColor=none;fillColor=none;align=left;verticalAlign=middle;spacingLeft=4;spacingRight=4;overflow=hidden;points=[[0,0.5],[1,0.5]];portConstraint=eastwest;rotatable=0;whiteSpace=wrap;html=1;fontSize=18;fontFamily=Courier New;labelBackgroundColor=none;fontColor=#000000;" vertex="1" parent="04IOhejOop0-YpIcqyQs-65">
          <mxGeometry y="30" width="210" height="210" as="geometry" />
        </mxCell>
        <mxCell id="04IOhejOop0-YpIcqyQs-67" value="Extends" style="endArrow=block;endSize=16;endFill=0;html=1;rounded=0;sketch=1;hachureGap=4;jiggle=2;curveFitting=1;fontFamily=Architects Daughter;fontSource=https%3A%2F%2Ffonts.googleapis.com%2Fcss%3Ffamily%3DArchitects%2BDaughter;fontSize=16;sourcePerimeterSpacing=8;targetPerimeterSpacing=8;curved=1;" edge="1" parent="1" source="04IOhejOop0-YpIcqyQs-65" target="04IOhejOop0-YpIcqyQs-52">
          <mxGeometry width="160" relative="1" as="geometry">
            <mxPoint x="308" y="1093" as="sourcePoint" />
            <mxPoint x="372" y="1026" as="targetPoint" />
          </mxGeometry>
        </mxCell>
      </root>
    </mxGraphModel>
  </diagram>
</mxfile>
